<?xml version="1.0" encoding="utf-8"?>
<!-- Generator: Adobe Illustrator 18.1.1, SVG Export Plug-In . SVG Version: 6.00 Build 0)  -->
<svg version="1.1" id="Layer_1" xmlns="http://www.w3.org/2000/svg" xmlns:xlink="http://www.w3.org/1999/xlink" x="0px" y="0px"
	 viewBox="0 0 1521.9 92" enable-background="new 0 0 1521.9 92" xml:space="preserve">
<path fill="#C0C0C0" d="M1521.9,68.8l-3.4,0l0,3.6l-2.5,0l0,8.6l-4.8,0l0-7.2l-4.4,0l0.1-23.9l-9.2,0l0-3.7l-8.3,0l0,1.9l-1.4,0
	l-0.1,23.6l-7.9,0l0.1-20.6l-5.1,0l0,3.4l-5.8,0l0,6.3l-3.7,0l0-8.4l-7.8,0l0-2.4l-8.1,0l-0.1,23.1l-3,0l0.1-18.5l-5.1,0l0.1-24.2
	l-9.3,0l-0.1,23.9l-4.6,0l-1.5,2l-2.5,0l0,4.6l-2.2,0l-0.1,11.4l-2.2,0l0,7.2l-3.1,0l0-7.8l-3.7,0l0-3.4l-3.6,0l0,2.9l-14.2-0.1
	l0,2.7l-4.2,0l0,4.4l-2.5,0l0-8.4l-3.9,0l0-9.1l-1.4,0l0.1-13.5l-8.7,0l-0.1,22.3l-1.2,0l0,5.7l-1.4,0l0,2.3l-3.3,0l0.1-16.2l-0.9,0
	l0-6.1l-1.4,0l0-5.4l-11.5-0.1L1354,69l-2,0l0.1-13.5l-1.4,0l0-2.3l-4.4,0l0,2.5l-1.2,0l-0.1,15.2l-2,0l0,4.8l-1.1,0l0.1-17.7
	l-2.3,0l0-3.4l-4.8,0l0-2.7l-4.1,0l0-2.8l-5.8,0l0,1.4l-2.7,0l0,2.5l-5.9,0l0,3.8l-3,0l0-5.9l-1.9,0l0-1.8l-4.1,0l0-2.8l-5.9,0
	l0,2.8l-2.5,0l0,2.6l-2.6,0l0-5.5l-7.5,0l0-2.5l-5.8,0l0,3.6l-5.3,0l0.1-15.2l-5,0l0-2.5l-5.9,0l-4.5,0l0,5.1l-2.3,0l-0.1,26.1
	l-2.3,0l0-7.2l-3.9,0l0-3.8l-8.6,0l0,3.6l-3.7,0l0.1-10.7l-3.1,0l0-4.4l-13.1-0.1l-0.1,13.7l-9,0l-0.1,16.8l-11.8-0.1l0.3-63.4
	l-4.7,0l0-1.7l-7.9,0l0,3.6l-1.1,0l-0.3,60l-9,0l0.1-16.6l-3.4,0l0-3.8l-13.2-0.1l0,8.8l-2,0l-0.1,25.7l-5.9,0l0-10.3l-4,0l0-2.9
	l-3.9,0l0,2.9l-3,0l-0.1,10.7l-3.7,0l0.2-33.9l-3,0l0-2.9l-9.7,0l0,2.1l-1.6,0l0-3.2l-6.4,0l-0.2,38.1l-12.8-0.1l0.1-26.1l-2.5,0
	l0-2.4l-5.4,0l-1.5,2l-1.6,0l-0.1,23.4l-3.7,0l0,4.6l-2.6,0l0.1-22.3l-3.3,0l0-2.1l-3.7,0l0-2.9l-3.1,0l0,6.1l-2.2,0l-0.1,21.1
	l-4.5,0l0.2-45.9l-4.4,0l0-5.1l-14.5-0.1l0,5.3l-2.5,0l0,8.6l-1.6,0l-0.2,35l-13.1-0.1l0-9.3l-3.6,0l0-2.9l-5.8,0l0,2.9l-2,0
	l-0.1,11.8l-3.3,0l0.1-16.2l-5,0l0-3.2l-5.8,0l0-2.9l-5.5,0l0,3.2l-2.5,0l-0.1,18.5l-7.5,0l0-10.1l-14.3-0.1l-0.1,11.2l-4.7,0
	l0.1-16.6l-14.8-0.1l0,5.5l-2.6,0l0-3.4l-3,0l0,3.4l-2.8,0l0.1-16.6l-2.6,0l0-2.3l-6.4,0l0,3.2l-2.2,0L944.6,83l-3.3,0l0.1-31
	l-3.4,0l0-2.5l-5.1,0l0,2.9l-2.2,0l-0.2,31.2l-18.7-0.1l0.1-21.7l-4.7,0l0-2.5l-9.1,0l0,2.5l-4,0l-0.1,22.3l-3.4,0l0-2.9l-2.8,0
	l0.1-15.2l-2.6,0l0-2.7l-4.8,0l0,5.1l-1.6,0l0-2.5l-3.9,0l0,2.1l-3.7,0l-0.1,12.6l-5,0l0,5.5l-4.4,0l0-4.8l-3.4,0l0-2.3l-6.4,0
	l0-2.7l-3.6,0l0,2.9l-3.7,0l0,5.5l-3.6,0v-0.2h-7.8v-4.7h-2v-2h-2.7v1.9h-2v-7.8h-2.2V50h-3.4v3.6H818v-2.4h-3.2v2.4h-3.5V67
	l-0.9,0.9v15.8h-2.2V48.5h-3.1V36.3h-1.9v1.2h-2.4v-3.1H800V38h-3.4v17.3h-1.7v28.7h-4.1V68.1h-2.2V53.6h-10v21.9h-4.2v5.8h-2.2v2.4
	h-3.1v-3.4h-1.5v-2.4h-3.2v-1.9h-6.6v-4.4h-2.5v-1.9H750V72h-1.9v8.8h-7.5v-5.1h-3.9v2h-3.6v-1.4h-11.9v-6.8H717v-1.4h-4.4v-1.2
	h-2.2V56.4h-1.2v-5.3H707v-1.5h-1.4v1.9H699v19.3h-2.9v-8.3h-3.2V58H688v4.2h-1.7v-1.5h-3.4v-2.9H681v-6.4h-1.4v7h-1V61H678v14.1
	h-2.4v-3.2H673v-5.4h-2v-9h-2.5v-1.7h-2.5v-2h-1.4v1.9H663v-5.9h-2.5v5.8h-2.7v7.1h-1.5v8.3h-4.9v7.2l-1.2,1.2v1.9h-1.7v-1.9h-1.7
	v-8.5h-1.7v-2.2h-3.4v1.7h-1.9v2.2h-3.2v-2.2h-5.3v-5.3h-7.8v13.2h-1.4v2.2h-8.5V82h-2.2v-7.3h-3.9V84h-5.3v1h-2.5v-2.7h-2.5V79
	h-9.4v2.1h-1.7v1.8h-1.7v-9h-3.9v1.4h-6.2v2h-2v-2.9H563v4.8h-4.8v-7.7h-2.5v-2.4H554v2.4h-5.3v-1.5H547v2.2h-2v8.8h-2.2v-9.5h-1.7
	v-1.7h-2.2v2h-1.1V77h-1v6.9h-1.4v-3.8h-1.7V53.7h-1.4v-2.9H520v3.1h-1V43.2h-4.9v-1.7h-3.4v2.1h-1.5v21.3h-2.9v-8.4h-1.1v-5.9
	l-0.7-0.7V39.3h-1.7v-5h-5.6v4.3h-1.4v2h-1.3V52h-1.8v-5.2H479v6.7h-3.5v-1.3h-2.4v2h-4.6V51h-3.8v-2.4h-2.7v1.8h-7.8V72h-4.1v2.2
	h-2.1v2h-5.5v4.8h-1.3v-19h-11.5v3.5h-6.7v12.2h-4.3v-1.5h-3.1v-2.2h-8.4v2.2h-4.3V78h-1.7V60.5h-14.8v19h-3.6V72h-6.2v9.2h-3.1
	V69.7h-1.7V54.8h-15.2v18.6h-2.9V80h-7.2v-3.7h-8.5V74h10v-1.2h-10v-3H337v3h-2v0.6h-2.3V70h-4.9v3.4h-8v3.4H311v-5.4h-1.4v-4h-1.4
	v-6.2h12.5v-1.2h-12.5v-0.8h-1.2v0.8h-4.5v1.2h4.5v6.2h-6v8h-17.2v-6h-1.7v-2h7.1v-1.2h-7.1v-0.5h-1.2v0.5h-1.1v1.2h1.1v2h-5.1v3.4
	h-8.9V74h3.8v2h-5.5v2.9h-2.6v-1.4H260V54.8h-1.7v-3.4h-5.4V78h-10.3V51.4h-4.3v2.3H236v18h-3.7v4.9h-1.7v-4.9h-7.2v-3.1h-3.1v-3.7
	h-2.9v-8.3h-4.6v3.1h-11.4v12h-6v-4h-7.2v-8h-17.7v9.4h-2.8v2.6h-1.8V55.4h-2v-4h-3.4v3.4h-3.7v13.7h-1.7v3.1h-2V62h-14v8h-4.6v3.4
	h-2.6v2h-2.6v-2.3l-1.6-1.6V68h-7v8.3h-2.6v-2h-2.9V51.4H113v-6.3h-2.6v-3.1H107v-2.6h-5.1v4.6H99v4.9h-1.7v16.9h-3.1v-3.1h-4v4.6
	h-4.6V54l-1.7-1.7v-6h-9.4v4.3h-4.9v8.6h-2.3v-1.7h-2.9l-1.7,1.7l-0.7,0.7v19.9h-3.3V60h-2.9v-2h-4.3v3.1h-4v5.1h-2.2V64H44v2.2
	h-5.4v1.2H44V74h-0.5v5.4H34V74h-3.1v-6.3l-1.3-1.3v-3.3h-5.3V72h-7.2v5.7H7.4l-1.1-1.1H0V92l1521.8,0L1521.9,68.8z M47.5,69.1h-2
	V74h-0.2v-6.5h2.2V69.1z M275.8,76H272v-2h3.8V76z M337,76.3h-2V74h2V76.3z"/>
</svg>
