<?xml version="1.0" encoding="utf-8"?>
<!-- Generator: Adobe Illustrator 18.1.1, SVG Export Plug-In . SVG Version: 6.00 Build 0)  -->
<svg version="1.1" id="Layer_1" xmlns="http://www.w3.org/2000/svg" xmlns:xlink="http://www.w3.org/1999/xlink" x="0px" y="0px"
	 viewBox="0 33.5 55 3.2" enable-background="new 0 33.5 55 3.2" xml:space="preserve">
<path fill="#FFFFFF" d="M55,35.8h-0.1V36h-0.1v0.3h-0.2V36h-0.2l0-0.9h-0.3V35h-0.3v0.1h-0.1l0,0.9h-0.3l0-0.7h-0.2v0.1h-0.2v0.2H53
	v-0.3h-0.3v-0.1h-0.3l0,0.8h-0.1l0-0.7h-0.2l0-0.9h-0.3l0,0.9h-0.2l-0.1,0.1h-0.1v0.2h-0.1l0,0.4h-0.1v0.3h-0.1v-0.3H51v-0.1h-0.1
	v0.1l-0.5,0V36h-0.2v0.2h-0.1v-0.3H50v-0.3H50l0-0.5h-0.3l0,0.8h0v0.2h-0.1v0.1h-0.1l0-0.6h0v-0.2h-0.1v-0.2l-0.4,0l0,0.7h-0.1
	l0-0.5h-0.1v-0.1h-0.2v0.1h0l0,0.5h-0.1v0.2h0l0-0.6h-0.1v-0.1h-0.2v-0.1h-0.1v-0.1h-0.2v0.1h-0.1v0.1h-0.2v0.1h-0.1v-0.2h-0.1v-0.1
	h-0.1V35H47v0.1h-0.1v0.1h-0.1V35h-0.3v-0.1h-0.2V35h-0.2l0-0.5H46v-0.1h-0.2h-0.2v0.2h-0.1l0,0.9h-0.1v-0.3h-0.1v-0.1H45v0.1h-0.1
	l0-0.4h-0.1v-0.2l-0.5,0l0,0.5H44l0,0.6l-0.4,0l0-2.3h-0.2v-0.1h-0.3v0.1h0l0,2.2h-0.3l0-0.6h-0.1V35l-0.5,0v0.3H42l0,0.9h-0.2v-0.4
	h-0.1v-0.1h-0.1v0.1h-0.1l0,0.4h-0.1l0-1.2h-0.1V35h-0.4V35h-0.1v-0.1h-0.2l0,1.4l-0.5,0l0-0.9H40v-0.1h-0.2l-0.1,0.1h-0.1l0,0.8
	h-0.1v0.2h-0.1l0-0.8h-0.1v-0.1h-0.1v-0.1h-0.1v0.2H39l0,0.8h-0.2l0-1.7h-0.2v-0.2l-0.5,0v0.2h-0.1V35H38l0,1.3l-0.5,0v-0.3h-0.1
	v-0.1h-0.2v0.1h-0.1l0,0.4H37l0-0.6h-0.2v-0.1h-0.2v-0.1h-0.2v0.1h-0.1l0,0.7h-0.3V36l-0.5,0l0,0.4h-0.2l0-0.6l-0.5,0V36h-0.1v-0.1
	h-0.1V36h-0.1l0-0.6h-0.1v-0.1h-0.2v0.1h-0.1l0,1H34l0-1.1h-0.1v-0.1h-0.2v0.1h-0.1l0,1.1l-0.7,0l0-0.8h-0.2v-0.1h-0.3v0.1h-0.1
	l0,0.8h-0.1v-0.1h-0.1l0-0.5H32v-0.1h-0.2v0.2h-0.1v-0.1h-0.1v0.1h-0.1l0,0.5h-0.2v0.2h-0.2v-0.2H31v-0.1h-0.2v-0.1h-0.1v0.1h-0.1
	v0.2h-0.1v0h-0.3v-0.2H30v-0.1h-0.1v0.1h-0.1v-0.3h-0.1v-0.8h-0.1v0.1h-0.1v-0.1h-0.1v0.1h-0.1v0.5l0,0v0.6h-0.1v-1.3h-0.1v-0.4H29
	v0h-0.1v-0.1h0v0.1h-0.1v0.6h-0.1v1h-0.1v-0.6h-0.1v-0.5h-0.4v0.8H28v0.2h-0.1v0.1h-0.1v-0.1h-0.1v-0.1h-0.1v-0.1h-0.2v-0.2h-0.1
	v-0.1h-0.2v0.1H27v0.3h-0.3v-0.2h-0.1v0.1h-0.1v-0.1h-0.4v-0.2h-0.2v-0.1h-0.2v0h-0.1v-0.4h0v-0.2h-0.1v-0.1h-0.1v0.1h-0.2v0.7h-0.1
	v-0.3H25v-0.2h-0.2v0.2h-0.1v-0.1h-0.1v-0.1h-0.1v-0.2h-0.1v0.3h0v0.1h0v0.5h-0.1v-0.1h-0.1v-0.2h-0.1v-0.3h-0.1v-0.1h-0.1v-0.1H24
	v0.1H24v-0.2h-0.1v0.2h-0.1v0.3h-0.1v0.3h-0.2v0.3l0,0v0.1h-0.1v-0.1h-0.1v-0.3h-0.1v-0.1h-0.1v0.1h-0.1V36H23v-0.1h-0.2v-0.2h-0.3
	v0.5h-0.1v0.1h-0.3v0.1h-0.1V36H22v0.3h-0.2v0h-0.1v-0.1h-0.1v-0.1h-0.3v0.1h-0.1v0.1h-0.1V36H21v0.1h-0.2v0.1h-0.1V36h-0.3v0.2
	h-0.2v-0.3h-0.1v-0.1H20v0.1h-0.2v-0.1h-0.1v0.1h-0.1v0.3h-0.1v-0.3h-0.1v-0.1h-0.1v0.1h0v0.2h0v0.2h-0.1v-0.1h-0.1v-1h-0.1v-0.1
	h-0.4v0.1h0v-0.4h-0.2v-0.1h-0.1v0.1h-0.1v0.8h-0.1v-0.3h0v-0.2l0,0v-0.4h-0.1v-0.2H18v0.2h-0.1v0.1h0v0.4h-0.1V35h-0.5v0.2h-0.1v0
	h-0.1v0.1h-0.2v-0.1h-0.1v-0.1h-0.1v0.1h-0.3v0.8h-0.1V36h-0.1v0.1H16v0.2h0v-0.7h-0.4v0.1h-0.2v0.4h-0.2v-0.1H15V36h-0.3v0.1h-0.2
	v0.1h-0.1v-0.6H14v0.7h-0.1v-0.3h-0.2v0.3h-0.1v-0.4h-0.1v-0.5h-0.5V36h-0.1v0.2h-0.3v-0.1h-0.3V36h0.4v0h-0.4v-0.1h0V36h-0.1v0H12
	v-0.1h-0.2V36h-0.3v0.1h-0.3v-0.2h-0.1v-0.1h-0.1v-0.2h0.5v0h-0.5v0h0v0h-0.2v0h0.2v0.2h-0.2v0.3h-0.6v-0.2h-0.1v-0.1h0.3v0h-0.3v0
	h0v0h0v0h0v0.1H10V36H9.6v0h0.1v0.1H9.6v0.1H9.5v-0.1H9.4v-0.8H9.3v-0.1H9.1v1H8.8v-1H8.6v0.1H8.5v0.7H8.4v0.2H8.3v-0.2H8.1v-0.1H8
	v-0.1H7.9v-0.3H7.7v0.1H7.3v0.4H7.1v-0.1H6.8v-0.3H6.2v0.3H6.1v0.1H6v-0.6H5.9v-0.1H5.8v0.1H5.7v0.5H5.6v0.1H5.5v-0.3H5v0.3H4.9V36
	H4.8v0.1H4.7V36l-0.1-0.1v-0.1H4.4v0.3H4.3V36H4.2v-0.8H4.1V35H4v-0.1H3.9v-0.1H3.7v0.2H3.6v0.2H3.5v0.6H3.4v-0.1H3.3v0.2H3.1v-0.5
	L3,35.2V35H2.7v0.2H2.5v0.3H2.4v-0.1H2.3l-0.1,0.1l0,0v0.7H2.1v-0.7H2v-0.1H1.9v0.1H1.7v0.2H1.6v-0.1h0v0.1H1.4v0h0.2V36h0v0.2H1.2
	V36H1.1v-0.2l0,0v-0.1H0.9v0.3H0.6v0.2H0.3l0,0H0v0.6h55L55,35.8z M1.7,35.8L1.7,35.8L1.6,36h0L1.7,35.8L1.7,35.8L1.7,35.8z
	 M10,36.1H9.8V36L10,36.1L10,36.1z M12.2,36.1L12.2,36.1L12.2,36.1L12.2,36.1L12.2,36.1z"/>
</svg>
