<?xml version="1.0" encoding="utf-8"?>
<!-- Generator: Adobe Illustrator 18.1.1, SVG Export Plug-In . SVG Version: 6.00 Build 0)  -->
<svg version="1.1" id="Layer_1" xmlns="http://www.w3.org/2000/svg" xmlns:xlink="http://www.w3.org/1999/xlink" x="0px" y="0px"
	 viewBox="0 0 281.2 228" enable-background="new 0 0 281.2 228" xml:space="preserve">
<g>
	<defs>
		<rect id="SVGID_1_" width="281.2" height="228"/>
	</defs>
	<clipPath id="SVGID_2_">
		<use xlink:href="#SVGID_1_"  overflow="visible"/>
	</clipPath>
	<polygon clip-path="url(#SVGID_2_)" fill="#E36A5C" points="249.2,96 240,112 272,112 281.2,96 	"/>
	<polygon clip-path="url(#SVGID_2_)" fill="#E36A5C" points="240,112 249.2,128 281.2,128 272,112 	"/>
	<g clip-path="url(#SVGID_2_)">
		<defs>
			<rect id="SVGID_3_" width="281.2" height="228"/>
		</defs>
		<clipPath id="SVGID_4_">
			<use xlink:href="#SVGID_3_"  overflow="visible"/>
		</clipPath>
		<path clip-path="url(#SVGID_4_)" fill="#E36A5C" d="M224,112c0,61.9-50.1,112-112,112C50.1,224,0,173.9,0,112S50.1,0,112,0
			C173.9,0,224,50.1,224,112"/>
		<path clip-path="url(#SVGID_4_)" fill="#FFFFFF" d="M112,32c44.1,0,80,35.9,80,80c0,44.1-35.9,80-80,80c-44.1,0-80-35.9-80-80
			C32,67.9,67.9,32,112,32 M112,16c-53,0-96,43-96,96s43,96,96,96c53,0,96-43,96-96S165,16,112,16"/>
		<path clip-path="url(#SVGID_4_)" fill="#FFFFFF" d="M112,64c26.5,0,48,21.5,48,48c0,26.5-21.5,48-48,48s-48-21.5-48-48
			C64,85.5,85.5,64,112,64 M112,48c-35.3,0-64,28.7-64,64s28.7,64,64,64s64-28.7,64-64S147.3,48,112,48"/>
		<path clip-path="url(#SVGID_4_)" fill="#FFFFFF" d="M112,96c8.8,0,16,7.2,16,16s-7.2,16-16,16s-16-7.2-16-16S103.2,96,112,96
			 M112,80c-17.7,0-32,14.3-32,32c0,17.7,14.3,32,32,32s32-14.3,32-32C144,94.3,129.7,80,112,80"/>
		<path clip-path="url(#SVGID_4_)" fill="#3B4250" d="M272,116H112c-2.2,0-4-1.8-4-4c0-2.2,1.8-4,4-4h160c2.2,0,4,1.8,4,4
			C276,114.2,274.2,116,272,116"/>
	</g>
	<g clip-path="url(#SVGID_2_)">
		<defs>
			<circle id="SVGID_5_" cx="112" cy="112" r="112"/>
		</defs>
		<clipPath id="SVGID_6_">
			<use xlink:href="#SVGID_5_"  overflow="visible"/>
		</clipPath>
		<g opacity="0.3" clip-path="url(#SVGID_6_)">
			<g>
				<defs>
					<rect id="SVGID_7_" x="108" y="108" width="120" height="120"/>
				</defs>
				<clipPath id="SVGID_8_">
					<use xlink:href="#SVGID_7_"  overflow="visible"/>
				</clipPath>
				<path clip-path="url(#SVGID_8_)" fill="#3B4250" d="M224,228c-1,0-2-0.4-2.8-1.2l-112-112c-1.6-1.6-1.6-4.1,0-5.7
					c1.6-1.6,4.1-1.6,5.7,0l112,112c1.6,1.6,1.6,4.1,0,5.7C226,227.6,225,228,224,228"/>
			</g>
		</g>
	</g>
</g>
</svg>
