<?xml version="1.0" encoding="utf-8"?>
<!-- Generator: Adobe Illustrator 18.1.1, SVG Export Plug-In . SVG Version: 6.00 Build 0)  -->
<svg version="1.1" id="Layer_1" xmlns="http://www.w3.org/2000/svg" xmlns:xlink="http://www.w3.org/1999/xlink" x="0px" y="0px"
	 viewBox="0 0 220.8 227" enable-background="new 0 0 220.8 227" xml:space="preserve">
<g>
	<defs>
		<rect id="SVGID_1_" width="220.8" height="227"/>
	</defs>
	<clipPath id="SVGID_2_">
		<use xlink:href="#SVGID_1_"  overflow="visible"/>
	</clipPath>
	<path clip-path="url(#SVGID_2_)" fill="#242C3C" d="M110.4,50.9c-2.9,0-5.8-0.6-8.1-1.7l-17.7-8.8C81,38.5,74.5,37,70.4,37h-40v-4
		h40c4.7,0,11.9,1.7,16,3.8l17.7,8.8c3.4,1.7,9.1,1.7,12.5,0l17.7-8.8c4.2-2.1,11.4-3.8,16.1-3.8h40v4h-40c-4.1,0-10.6,1.5-14.3,3.4
		l-17.7,8.8C116.2,50.3,113.3,50.9,110.4,50.9"/>
	<path clip-path="url(#SVGID_2_)" fill="#242C3C" d="M110.4,225.3c-4.4,0-7.9-3.6-7.9-7.9l4.1-161.8c0-2.5,1.7-4.5,3.9-4.5
		c2.1,0,3.9,2,3.9,4.5l4.1,161.8C118.3,221.8,114.8,225.3,110.4,225.3"/>
	<path clip-path="url(#SVGID_2_)" fill="#FFFFFF" d="M126.4,211c0,8.8-7.2,16-16,16c-8.8,0-16-7.2-16-16c0-8.8,7.2-16,16-16
		C119.2,195,126.4,202.2,126.4,211"/>
	<path clip-path="url(#SVGID_2_)" fill="#FFFFFF" d="M142.4,211h-64c-8.8,0-16,7.2-16,16h16h16h32h16h16
		C158.4,218.2,151.2,211,142.4,211"/>
	<path clip-path="url(#SVGID_2_)" fill="#242C3C" d="M72.8,139.4c-0.8,0-1.6-0.5-1.9-1.4L38.4,41.3L5.9,138c-0.4,1-1.5,1.6-2.5,1.3
		c-1-0.4-1.6-1.5-1.3-2.5L36.5,34.4c0.3-0.8,1-1.4,1.9-1.4c0.9,0,1.6,0.5,1.9,1.4l34.4,102.4c0.4,1-0.2,2.2-1.3,2.5
		C73.2,139.4,73,139.4,72.8,139.4"/>
	<path clip-path="url(#SVGID_2_)" fill="#F4C47A" d="M0,137.4C7.7,152.7,22,163,38.4,163c16.4,0,30.7-10.3,38.4-25.6H0z"/>
	<path clip-path="url(#SVGID_2_)" fill="#EEA738" d="M55.3,137.4C48.2,149.7,34.9,158,19.6,158c-0.1,0-0.3,0-0.4,0
		c5.8,3.2,12.3,5,19.2,5c16.4,0,30.7-10.3,38.4-25.6H55.3z"/>
	<path clip-path="url(#SVGID_2_)" fill="#242C3C" d="M216.8,139.4c-0.8,0-1.6-0.5-1.9-1.4l-32.5-96.8L149.9,138
		c-0.4,1-1.5,1.6-2.5,1.3c-1-0.4-1.6-1.5-1.3-2.5l34.4-102.4c0.3-0.8,1-1.4,1.9-1.4c0.9,0,1.6,0.5,1.9,1.4l34.4,102.4
		c0.4,1-0.2,2.2-1.3,2.5C217.2,139.4,217,139.4,216.8,139.4"/>
	<path clip-path="url(#SVGID_2_)" fill="#F4C47A" d="M144,137.4c7.7,15.3,22,25.6,38.4,25.6c16.4,0,30.7-10.3,38.4-25.6H144z"/>
	<path clip-path="url(#SVGID_2_)" fill="#EEA738" d="M199.3,137.4c-7.1,12.3-20.4,20.6-35.7,20.6c-0.1,0-0.3,0-0.4,0
		c5.8,3.2,12.3,5,19.2,5c16.4,0,30.7-10.3,38.4-25.6H199.3z"/>
	<path clip-path="url(#SVGID_2_)" fill="#242C3C" d="M38.4,37c-1.1,0-2-0.9-2-2V19h4v16C40.4,36.1,39.5,37,38.4,37"/>
	<path clip-path="url(#SVGID_2_)" fill="#242C3C" d="M182.4,37c-1.1,0-2-0.9-2-2V19h4v16C184.4,36.1,183.5,37,182.4,37"/>
	<path clip-path="url(#SVGID_2_)" fill="#242C3C" d="M110.4,54c-1.7,0-3-1.3-3-3V3c0-1.7,1.3-3,3-3c1.7,0,3,1.3,3,3v48
		C113.4,52.7,112.1,54,110.4,54"/>
	<path clip-path="url(#SVGID_2_)" fill="#FFFFFF" d="M120.4,51c0,5.5-4.5,10-10,10c-5.5,0-10-4.5-10-10c0-5.5,4.5-10,10-10
		C115.9,41,120.4,45.5,120.4,51"/>
	<path clip-path="url(#SVGID_2_)" fill="#242C3C" d="M114.4,51c0,2.2-1.8,4-4,4c-2.2,0-4-1.8-4-4c0-2.2,1.8-4,4-4
		C112.6,47,114.4,48.8,114.4,51"/>
</g>
</svg>
