<?xml version="1.0" encoding="utf-8"?>
<!-- Generator: Adobe Illustrator 18.1.1, SVG Export Plug-In . SVG Version: 6.00 Build 0)  -->
<svg version="1.1" id="Layer_1" xmlns="http://www.w3.org/2000/svg" xmlns:xlink="http://www.w3.org/1999/xlink" x="0px" y="0px"
	 viewBox="0 0 256.5 107.8" enable-background="new 0 0 256.5 107.8" xml:space="preserve">
<g>
	<defs>
		<rect id="SVGID_1_" y="0" width="256.5" height="107.8"/>
	</defs>
	<clipPath id="SVGID_2_">
		<use xlink:href="#SVGID_1_"  overflow="visible"/>
	</clipPath>
	<path clip-path="url(#SVGID_2_)" fill="#00A4E7" d="M103.3,104.6c0.4,4,5.2,3.1,5.2,3.1S208,73.9,212.2,72.5
		c4.2-1.5,4.1-3.9,4.1-3.9s-0.1-23.7-0.1-26.7c-0.2-3-3.7-4.6-3.7-4.6S120.2,3.1,113,0.5c-7.9-2.5-9.6,5-9.6,5s-0.1,0.7-0.1,1
		C103.2,6.8,103.3,104.6,103.3,104.6"/>
	<polyline clip-path="url(#SVGID_2_)" fill="#514B49" points="39.3,20.6 29,24 19.8,67.7 11,28.7 0,32.1 13.1,79.6 26.5,82.7 
		39.3,21.1 	"/>
	<polygon clip-path="url(#SVGID_2_)" fill="#514B49" points="45.7,18.9 45.5,87.4 56.1,89.7 56.4,15.6 	"/>
	<path clip-path="url(#SVGID_2_)" fill="#514B49" d="M89.1,4.2c0,0-8.2,2.6-12.9,4.4c-12,5-11.4,17.9-11.4,17.9l-0.2,65.8l10.5,2.9
		V63.6L88,64.5v34.6l10.5,2.7V13.9C98,1.4,89.1,4.2,89.1,4.2 M87.9,52.8H75.5l0-27.8c0,0-0.2-5.5,3.3-6.7c3.5-1.1,4.5-1.6,5.6-1.6
		c1,0,3.5,0.4,3.5,4.1V52.8z"/>
	<path clip-path="url(#SVGID_2_)" fill="#FFFFFF" d="M136.3,60.8c0,0,7.3-2.7,6.5-14V29.2c0,0,0-4.5-1.2-7.3
		c-1.1-2.2-1.2-3.9-10.3-7.7c-9-3.6-21.8-8-21.8-8v94.1l10.6-3.5V62.2l6.2-0.5l7.8,30.1l9.9-3.3L136.3,60.8z M127.8,53.3l-7.5,0.1
		l0.1-34.2c0,0,1.9,0.2,5.4,1.3c5.8,1.2,5.9,8,5.9,8v20.5C132,52.9,127.8,53.3,127.8,53.3"/>
	<polygon clip-path="url(#SVGID_2_)" fill="#FFFFFF" points="147,19.3 147,27.4 157.5,31.2 157.5,84.6 168.3,81.1 168.3,34.9 
		178.5,38.3 178.5,30.2 	"/>
	<polygon clip-path="url(#SVGID_2_)" fill="#FFFFFF" points="210.9,41.4 210.9,45.4 195.3,42.8 195.3,50.6 209.1,51.1 209.1,56.5 
		195.4,56.7 195,66.6 210.8,63.1 211,67.3 184.3,75.7 184.3,32.6 	"/>
	<polygon clip-path="url(#SVGID_2_)" fill="#514B49" points="220.6,39.6 220.6,69.4 256.5,54.1 	"/>
</g>
</svg>
