<?xml version="1.0" encoding="utf-8"?>
<!-- Generator: Adobe Illustrator 18.1.1, SVG Export Plug-In . SVG Version: 6.00 Build 0)  -->
<svg version="1.1" id="Layer_1" xmlns="http://www.w3.org/2000/svg" xmlns:xlink="http://www.w3.org/1999/xlink" x="0px" y="0px"
	 viewBox="0 0 224 128" enable-background="new 0 0 224 128" xml:space="preserve">
<g>
	<defs>
		<rect id="SVGID_1_" width="224" height="128"/>
	</defs>
	<clipPath id="SVGID_2_">
		<use xlink:href="#SVGID_1_"  overflow="visible"/>
	</clipPath>
	<g clip-path="url(#SVGID_2_)">
		<defs>
			<rect id="SVGID_3_" width="224" height="128"/>
		</defs>
		<clipPath id="SVGID_4_">
			<use xlink:href="#SVGID_3_"  overflow="visible"/>
		</clipPath>
		<path clip-path="url(#SVGID_4_)" fill="#242C3C" d="M175.7,20.1C173.8,8.7,163.9,0,152,0c-10.4,0-19.3,6.7-22.6,16H160
			C165.7,16,171,17.5,175.7,20.1"/>
		<path clip-path="url(#SVGID_4_)" fill="#242C3C" d="M94.6,16C91.3,6.7,82.4,0,72,0C60.1,0,50.2,8.7,48.3,20.1
			C53,17.5,58.3,16,64,16H94.6z"/>
		<path clip-path="url(#SVGID_4_)" fill="#2B3A49" d="M93.3,64h37.5c6.6-18.6,24.4-32,45.3-32c4.4,0,8.6,0.6,12.6,1.7
			c-2.9-5.7-7.4-10.4-12.9-13.5c-4.6-2.6-10-4.1-15.7-4.1h-30.6h-6.1c0,6.2-5.1,11.3-11.3,11.3c-6.2,0-11.3-5.1-11.3-11.3h-6.1H64
			c-5.7,0-11,1.5-15.7,4.1c-5.5,3.1-10,7.9-12.9,13.5c4-1.1,8.2-1.7,12.6-1.7C68.9,32,86.7,45.4,93.3,64"/>
		<path clip-path="url(#SVGID_4_)" fill="#242C3C" d="M130.7,64H93.3C95,69,96,74.4,96,80s-1,11-2.7,16h37.5c-1.8-5-2.7-10.4-2.7-16
			S129,69,130.7,64"/>
		<path clip-path="url(#SVGID_4_)" fill="#2B3A49" d="M48,40C25.9,40,8,57.9,8,80s17.9,40,40,40c22.1,0,40-17.9,40-40S70.1,40,48,40
			 M48,112c-17.7,0-32-14.3-32-32s14.3-32,32-32c17.7,0,32,14.3,32,32S65.7,112,48,112"/>
		<path clip-path="url(#SVGID_4_)" fill="#2B3A49" d="M176,40c-22.1,0-40,17.9-40,40s17.9,40,40,40c22.1,0,40-17.9,40-40
			S198.1,40,176,40 M176,112c-17.7,0-32-14.3-32-32s14.3-32,32-32c17.7,0,32,14.3,32,32S193.7,112,176,112"/>
		<path clip-path="url(#SVGID_4_)" fill="#6DBEC4" d="M176,48c-17.7,0-32,14.3-32,32s14.3,32,32,32c17.7,0,32-14.3,32-32
			S193.7,48,176,48"/>
		<path clip-path="url(#SVGID_4_)" fill="#6DBEC4" d="M48,48c-17.7,0-32,14.3-32,32s14.3,32,32,32c17.7,0,32-14.3,32-32
			S65.7,48,48,48"/>
		<path clip-path="url(#SVGID_4_)" fill="#242C3C" d="M93.3,64C86.7,45.4,68.9,32,48,32c-4.4,0-8.6,0.6-12.6,1.7
			C15,39.2,0,57.8,0,80c0,26.5,21.5,48,48,48c20.9,0,38.7-13.4,45.3-32C95,91,96,85.6,96,80S95,69,93.3,64 M48,120
			c-22.1,0-40-17.9-40-40s17.9-40,40-40c22.1,0,40,17.9,40,40S70.1,120,48,120"/>
		<path clip-path="url(#SVGID_4_)" fill="#242C3C" d="M188.6,33.7c-4-1.1-8.2-1.7-12.6-1.7c-20.9,0-38.7,13.4-45.3,32
			c-1.8,5-2.7,10.4-2.7,16s1,11,2.7,16c6.6,18.6,24.4,32,45.3,32c26.5,0,48-21.5,48-48C224,57.8,209,39.2,188.6,33.7 M176,120
			c-22.1,0-40-17.9-40-40s17.9-40,40-40c22.1,0,40,17.9,40,40S198.1,120,176,120"/>
		<g opacity="0.4" clip-path="url(#SVGID_4_)">
			<g>
				<defs>
					<rect id="SVGID_5_" x="24" y="59.3" width="24" height="24"/>
				</defs>
				<clipPath id="SVGID_6_">
					<use xlink:href="#SVGID_5_"  overflow="visible"/>
				</clipPath>
				<path clip-path="url(#SVGID_6_)" fill="#FFFFFF" d="M48,71.3c0-6.6-5.4-12-12-12c-6.6,0-12,5.4-12,12c0,6.6,5.4,12,12,12
					C42.6,83.3,48,78,48,71.3"/>
			</g>
		</g>
		<g opacity="0.4" clip-path="url(#SVGID_4_)">
			<g>
				<defs>
					<rect id="SVGID_7_" x="152" y="59.3" width="24" height="24"/>
				</defs>
				<clipPath id="SVGID_8_">
					<use xlink:href="#SVGID_7_"  overflow="visible"/>
				</clipPath>
				<path clip-path="url(#SVGID_8_)" fill="#FFFFFF" d="M176,71.3c0-6.6-5.4-12-12-12c-6.6,0-12,5.4-12,12c0,6.6,5.4,12,12,12
					C170.6,83.3,176,78,176,71.3"/>
			</g>
		</g>
	</g>
</g>
</svg>
